<svg width="216" height="37" viewBox="0 0 216 37" fill="none" xmlns="http://www.w3.org/2000/svg">
<path d="M46.5029 7.98785V31.6543L37.93 36.6037L28.4558 31.1353L18.9864 36.6037L10.4134 31.6543V11.8473L18.0946 16.2824V28.2478L28.4605 22.2651L38.8264 28.2478V7.98785C38.8264 7.98785 38.8453 7.99256 38.8547 7.99728C39.822 8.86071 41.1714 9.39859 42.667 9.39859C44.1627 9.39859 45.5074 8.86543 46.4793 8.002C46.4888 8.002 46.4982 8.002 46.5077 7.99256L46.5029 7.98785ZM37.0335 16.2824L9.51695 0.396259L0.943981 5.34565V36.0895L8.62521 31.6543V8.74748L37.0382 25.1527V16.2824H37.0335ZM38.2791 5.54854C38.1659 5.14749 38.1093 4.72285 38.1093 4.29349C38.1093 3.09507 38.5575 1.95798 39.3501 1.14645C38.4537 1.27856 37.8686 2.19389 37.2977 3.08092C37.0193 3.51499 36.7315 3.96322 36.4107 4.28878C36.6938 4.56715 36.958 4.98235 37.2317 5.42114C37.6752 6.11944 38.1753 6.91681 38.85 7.27068C39.0152 7.35561 39.1803 7.41223 39.3454 7.44054C39.1378 7.2235 38.9444 6.97815 38.7745 6.69978C38.5528 6.34119 38.3876 5.95902 38.2744 5.55325L38.2791 5.54854ZM39.0151 3.06204C38.7745 3.75562 38.7462 4.54356 38.9491 5.29375C39.1897 6.17606 39.7182 6.93569 40.4353 7.4311C40.8977 7.76609 41.4403 7.99256 42.0018 8.09165L39.0199 3.06676L39.0151 3.06204ZM39.6002 2.63741L42.667 7.80384L45.7291 2.63741H39.6002ZM45.3847 1.57581C44.8374 1.02378 44.0967 0.646324 43.3087 0.514214C43.0917 0.476469 42.8652 0.457596 42.6293 0.457596C41.8225 0.457596 41.0393 0.707661 40.4306 1.16533C40.1286 1.38236 39.8597 1.63715 39.6332 1.92496H45.6867C45.597 1.81172 45.498 1.69376 45.38 1.58053L45.3847 1.57581ZM48.0316 3.08092C47.5787 2.36847 47.1116 1.64186 46.4841 1.31631C46.3661 1.25497 46.2482 1.20779 46.1255 1.17948C46.0783 1.17004 46.0311 1.15589 45.9839 1.15117C45.9934 1.16061 46.0028 1.17476 46.0122 1.1842C46.2198 1.39652 46.4039 1.63715 46.5596 1.89193C46.9983 2.60438 47.2295 3.43478 47.2295 4.29821C47.2295 5.16164 46.9983 5.99205 46.5596 6.69978C46.3897 6.97815 46.201 7.2235 45.9934 7.43582C46.1585 7.40751 46.3189 7.35561 46.4841 7.26596C47.1588 6.9121 47.6589 6.11944 48.1024 5.41643L48.1118 5.40227C48.3713 4.99179 48.6356 4.56715 48.9281 4.28878C48.6073 3.9585 48.3194 3.51027 48.0411 3.08092H48.0316ZM46.5029 3.57161C46.4605 3.35457 46.4039 3.14225 46.3236 2.93465L43.2191 8.16714C43.8324 8.07749 44.4222 7.84158 44.9271 7.483C45.7763 6.89322 46.3236 5.97317 46.5029 4.98235C46.5879 4.51997 46.5926 4.03871 46.5029 3.57161Z" fill="url(#paint0_linear_168_3882)"/>
<path d="M105.462 24.1288C105.57 24.1288 105.669 24.1382 105.749 24.1524C105.83 24.1666 105.9 24.1949 105.962 24.2373C106.023 24.2798 106.075 24.3364 106.122 24.4119C106.169 24.4874 106.221 24.5818 106.268 24.7044L107.844 28.3375C107.863 28.3846 107.901 28.4035 107.948 28.4035H108.038C108.09 28.4035 108.123 28.3799 108.142 28.3375L109.717 24.7044C109.769 24.5818 109.817 24.4874 109.864 24.4119C109.911 24.3411 109.968 24.2798 110.024 24.2373C110.081 24.1949 110.152 24.1666 110.232 24.1524C110.312 24.1382 110.406 24.1288 110.515 24.1288H111.326C111.591 24.1288 111.765 24.1901 111.855 24.3081C111.944 24.4261 111.992 24.6289 111.992 24.9168V29.2575C111.992 29.3707 111.935 29.4226 111.817 29.4226H111.043C110.93 29.4226 110.878 29.366 110.878 29.2575V25.3084C110.878 25.2565 110.859 25.2329 110.817 25.2329H110.751C110.699 25.2329 110.666 25.2517 110.652 25.2942L109.123 28.6819C109.062 28.8187 109 28.9319 108.939 29.0263C108.878 29.1207 108.807 29.1962 108.736 29.2575C108.665 29.3188 108.58 29.3613 108.486 29.3849C108.392 29.4085 108.283 29.4226 108.156 29.4226H107.792C107.665 29.4226 107.557 29.4085 107.462 29.3849C107.368 29.3613 107.288 29.3188 107.212 29.2575C107.137 29.1962 107.071 29.1207 107.009 29.0263C106.948 28.9319 106.887 28.8187 106.825 28.6819L105.297 25.2942C105.282 25.2517 105.249 25.2329 105.197 25.2329H105.131C105.089 25.2329 105.07 25.2565 105.07 25.3084V29.2575C105.07 29.3707 105.013 29.4226 104.905 29.4226H104.131C104.013 29.4226 103.957 29.366 103.957 29.2575V24.9168C103.957 24.6289 104.004 24.4261 104.093 24.3081C104.183 24.1901 104.362 24.1288 104.631 24.1288H105.457H105.462ZM119.621 24.1288C119.814 24.1288 119.975 24.1666 120.107 24.2468C120.239 24.327 120.366 24.478 120.494 24.7044L122.999 29.2528C123.023 29.3047 123.032 29.3471 123.018 29.3755C123.004 29.4085 122.971 29.4226 122.91 29.4226H121.947C121.862 29.4226 121.805 29.3896 121.772 29.3236L121.235 28.3469H117.677L117.153 29.3236C117.12 29.3896 117.059 29.4226 116.979 29.4226H115.997C115.931 29.4226 115.894 29.4085 115.879 29.3755C115.865 29.3424 115.875 29.3 115.898 29.2528L118.38 24.7044C118.507 24.478 118.63 24.327 118.753 24.2468C118.875 24.1666 119.017 24.1288 119.177 24.1288H119.626H119.621ZM118.149 27.474H120.753L119.55 25.2565C119.531 25.2234 119.503 25.2046 119.465 25.2046H119.418C119.38 25.2046 119.357 25.2234 119.333 25.2565L118.144 27.474H118.149ZM131.185 24.1288C131.766 24.1288 132.181 24.2609 132.436 24.5204C132.686 24.7846 132.813 25.1715 132.813 25.6858V26.1152C132.813 26.5492 132.723 26.8937 132.549 27.1437C132.374 27.3938 132.086 27.5589 131.685 27.6297L132.978 29.2339C133.002 29.2575 133.011 29.2952 133.002 29.3471C132.992 29.399 132.95 29.4226 132.879 29.4226H131.902C131.836 29.4226 131.789 29.4132 131.766 29.399C131.742 29.3849 131.714 29.3566 131.69 29.3236L130.496 27.7477H128.052V29.2528C128.052 29.366 127.996 29.4179 127.887 29.4179H127.071C126.953 29.4179 126.896 29.3613 126.896 29.2528V24.3506C126.896 24.1996 126.972 24.1241 127.123 24.1241H131.185V24.1288ZM128.052 26.8276H130.949C131.209 26.8276 131.388 26.771 131.492 26.6625C131.596 26.554 131.652 26.3841 131.652 26.1576V25.8415C131.652 25.615 131.6 25.4452 131.492 25.3367C131.388 25.2282 131.204 25.1715 130.949 25.1715H128.151C128.085 25.1715 128.052 25.1998 128.052 25.2612V26.8371V26.8276ZM137.928 24.1288C138.036 24.1288 138.093 24.1854 138.093 24.2939V26.3086H139.159C139.282 26.3086 139.381 26.3086 139.461 26.2992C139.541 26.2897 139.612 26.2756 139.673 26.252C139.735 26.2284 139.791 26.1907 139.838 26.1482C139.89 26.101 139.942 26.0444 139.999 25.9736L141.301 24.2326C141.325 24.1996 141.353 24.1713 141.377 24.1571C141.4 24.143 141.447 24.1335 141.518 24.1335H142.457C142.523 24.1335 142.561 24.1571 142.575 24.1996C142.589 24.2421 142.58 24.2798 142.556 24.3175L141.089 26.219C141.004 26.3369 140.924 26.4313 140.853 26.5162C140.777 26.5964 140.707 26.6672 140.636 26.7285C140.834 26.8512 141.023 27.0305 141.211 27.2711L142.764 29.2386C142.783 29.2622 142.792 29.3047 142.787 29.3566C142.783 29.4085 142.74 29.4368 142.665 29.4368H141.697C141.631 29.4368 141.584 29.4274 141.561 29.4132C141.537 29.399 141.509 29.3707 141.485 29.3377L140.093 27.5354C139.994 27.4032 139.886 27.3136 139.768 27.2664C139.65 27.2192 139.48 27.1956 139.244 27.1956H138.093V29.2669C138.093 29.3802 138.036 29.4321 137.928 29.4321H137.111C136.993 29.4321 136.937 29.3755 136.937 29.2669V24.3034C136.937 24.1949 136.993 24.1382 137.111 24.1382H137.928V24.1288ZM151.78 24.1288C151.898 24.1288 151.955 24.1854 151.955 24.2939V25.0111C151.955 25.1244 151.898 25.1763 151.78 25.1763H148.473C148.275 25.1763 148.114 25.1904 147.987 25.2234C147.859 25.2565 147.756 25.3131 147.675 25.3886C147.595 25.4641 147.543 25.5726 147.515 25.7047C147.487 25.8368 147.468 26.0019 147.468 26.2001V26.2756H151.742C151.856 26.2756 151.908 26.3322 151.908 26.4407V27.0399C151.908 27.1532 151.851 27.2051 151.742 27.2051H147.468V27.3325C147.468 27.5306 147.482 27.6958 147.515 27.8279C147.543 27.96 147.6 28.0685 147.675 28.144C147.751 28.2195 147.855 28.2761 147.987 28.3091C148.114 28.3422 148.279 28.3563 148.473 28.3563H151.78C151.898 28.3563 151.955 28.4129 151.955 28.5215V29.2386C151.955 29.3519 151.898 29.4038 151.78 29.4038H148.449C148.067 29.4038 147.741 29.3707 147.473 29.3C147.204 29.2292 146.987 29.116 146.817 28.9555C146.647 28.7951 146.524 28.5922 146.444 28.3375C146.364 28.0827 146.326 27.776 146.326 27.4127V26.1105C146.326 25.7472 146.364 25.4405 146.444 25.1857C146.524 24.9356 146.647 24.728 146.817 24.5676C146.987 24.4072 147.204 24.294 147.473 24.2185C147.741 24.143 148.067 24.1099 148.449 24.1099H151.78V24.1288ZM161.882 24.1288C162 24.1288 162.056 24.1854 162.056 24.2939V25.0347C162.056 25.1527 162 25.2093 161.882 25.2093H159.504V29.2575C159.504 29.3707 159.447 29.4226 159.339 29.4226H158.513C158.4 29.4226 158.348 29.366 158.348 29.2575V25.2093H155.97C155.852 25.2093 155.795 25.1527 155.795 25.0347V24.2939C155.795 24.1854 155.852 24.1288 155.97 24.1288H161.877H161.882ZM171.257 24.1288C171.365 24.1288 171.422 24.1854 171.422 24.2939V25.0111C171.422 25.1244 171.365 25.1763 171.257 25.1763H167.468C167.322 25.1763 167.218 25.214 167.157 25.2895C167.096 25.365 167.067 25.4688 167.067 25.6009V25.8604C167.067 26.1435 167.199 26.285 167.459 26.285H170.294C170.733 26.285 171.064 26.3983 171.285 26.62C171.507 26.8465 171.62 27.1673 171.62 27.5825V28.1865C171.62 28.5545 171.512 28.8517 171.295 29.0782C171.078 29.3047 170.738 29.4179 170.28 29.4179H166.091C165.973 29.4179 165.916 29.3613 165.916 29.2528V28.5356C165.916 28.4271 165.973 28.3705 166.091 28.3705H170.063C170.21 28.3705 170.313 28.3327 170.375 28.2572C170.436 28.1818 170.464 28.0779 170.464 27.9458V27.6344C170.464 27.3513 170.332 27.2098 170.073 27.2098H167.237C166.798 27.2098 166.468 27.0966 166.246 26.8748C166.024 26.6483 165.911 26.3275 165.911 25.9123V25.3603C165.911 24.9922 166.02 24.695 166.237 24.4685C166.454 24.2421 166.794 24.1288 167.251 24.1288H171.262H171.257ZM64.6445 0.405694C65.0125 0.405694 65.3145 0.419848 65.5598 0.452875C65.8051 0.481185 66.0175 0.547241 66.2015 0.646323C66.3855 0.745406 66.5601 0.882235 66.7299 1.05681C66.8998 1.23138 67.0885 1.46257 67.3008 1.7551L75.8125 12.9231C75.8738 13.0316 75.9729 13.0835 76.1097 13.0835H76.3173C76.44 13.0835 76.5013 13.008 76.5013 12.8523V0.910542C76.5013 0.575549 76.6712 0.405694 77.0062 0.405694H79.4077C79.7427 0.405694 79.9126 0.575549 79.9126 0.910542V14.046C79.9126 14.9755 79.7427 15.6077 79.4077 15.9333C79.0727 16.2636 78.5537 16.424 77.8507 16.424H75.8832C75.5341 16.424 75.2368 16.4098 75.0009 16.3768C74.765 16.3485 74.5527 16.2872 74.3734 16.1928C74.1894 16.1032 74.0101 15.9663 73.8355 15.7918C73.661 15.6172 73.4581 15.3765 73.2269 15.0699L64.6917 3.90188C64.602 3.79336 64.5029 3.74146 64.3944 3.74146H64.1868C64.0641 3.74146 64.0028 3.81696 64.0028 3.96794V15.9097C64.0028 16.2447 63.8329 16.4146 63.4979 16.4146H61.1011C60.752 16.4146 60.5727 16.2447 60.5727 15.9097V2.77423C60.5727 1.84475 60.7425 1.21251 61.0775 0.886953C61.4125 0.561397 61.9315 0.396259 62.6345 0.396259H64.6492L64.6445 0.405694ZM98.8043 0.405694C99.1534 0.405694 99.3327 0.575549 99.3327 0.910542V3.08563C99.3327 3.42063 99.1581 3.59048 98.8043 3.59048H88.8064C88.2119 3.59048 87.7212 3.64238 87.3296 3.74146C86.9427 3.84054 86.6266 4.0104 86.3907 4.24631C86.1548 4.48222 85.9896 4.80306 85.9 5.20882C85.8103 5.61459 85.7631 6.11472 85.7631 6.70921V6.9404H98.691C99.026 6.9404 99.1959 7.11026 99.1959 7.44525V9.25232C99.1959 9.58731 99.026 9.75717 98.691 9.75717H85.7631V10.1441C85.7631 10.7386 85.8103 11.2387 85.9 11.6445C85.9896 12.0502 86.1548 12.3711 86.3907 12.607C86.6266 12.8429 86.938 13.0127 87.3296 13.1118C87.7165 13.2109 88.2119 13.2581 88.8064 13.2581H98.8043C99.1534 13.2581 99.3327 13.4279 99.3327 13.7629V15.938C99.3327 16.273 99.1581 16.4429 98.8043 16.4429H88.7356C87.5749 16.4429 86.5935 16.3343 85.782 16.122C84.9752 15.9097 84.3147 15.5606 83.8051 15.0793C83.2955 14.598 82.9181 13.9752 82.6822 13.2015C82.4462 12.4324 82.3283 11.4982 82.3283 10.3988V6.46387C82.3283 5.36453 82.4462 4.43504 82.6822 3.67069C82.9181 2.90634 83.2908 2.28826 83.8051 1.807C84.3147 1.32574 84.9752 0.976596 85.782 0.75484C86.5888 0.533085 87.5749 0.424567 88.7356 0.424567H98.8043V0.405694ZM119.928 0.405694C120.14 0.405694 120.258 0.476467 120.282 0.622731C120.305 0.768995 120.263 0.89167 120.154 1.00019L113.129 8.11524L120.475 15.8248C120.583 15.9333 120.626 16.056 120.602 16.2022C120.579 16.3485 120.461 16.4193 120.248 16.4193H117.116C116.932 16.4193 116.785 16.3957 116.682 16.3485C116.573 16.3013 116.474 16.2211 116.384 16.0984L110.732 10.1724L105.056 16.0984C104.947 16.2211 104.844 16.306 104.749 16.3485C104.65 16.3957 104.499 16.4193 104.301 16.4193H101.328C101.13 16.4193 101.022 16.3485 100.998 16.2022C100.975 16.056 101.017 15.9333 101.126 15.8248L108.651 7.99728L101.857 0.995469C101.767 0.886951 101.725 0.76428 101.744 0.618015C101.758 0.471751 101.871 0.400975 102.088 0.400975H105.221C105.405 0.400975 105.551 0.429287 105.655 0.481187C105.764 0.533087 105.863 0.613294 105.952 0.721813L110.939 6.02979L116.224 0.721813C116.314 0.613294 116.413 0.533087 116.521 0.481187C116.63 0.429287 116.771 0.400975 116.955 0.400975H119.928V0.405694ZM140.192 0.405694C140.541 0.405694 140.721 0.575549 140.721 0.910542V3.15169C140.721 3.50083 140.546 3.68013 140.192 3.68013H133.007V15.9191C133.007 16.2541 132.837 16.424 132.502 16.424H130.006C129.671 16.424 129.501 16.2541 129.501 15.9191V3.68013H122.315C121.966 3.68013 121.787 3.50555 121.787 3.15169V0.910542C121.787 0.575549 121.961 0.405694 122.315 0.405694H140.183H140.192ZM145.425 0.405694C145.576 0.405694 145.684 0.504779 145.746 0.702943L149.454 13.0127C149.468 13.1213 149.53 13.1732 149.638 13.1732H149.751C149.841 13.1732 149.902 13.1213 149.935 13.0127L153.644 1.73151C153.814 1.21251 154.031 0.863361 154.309 0.679351C154.583 0.495341 154.927 0.405694 155.338 0.405694H157.602C158.107 0.405694 158.49 0.504779 158.758 0.702943C159.027 0.901108 159.244 1.24554 159.41 1.73151L163.208 13.0127C163.236 13.1213 163.297 13.1732 163.392 13.1732H163.529C163.618 13.1732 163.68 13.1213 163.713 13.0127L167.327 0.702943C167.355 0.58027 167.407 0.500059 167.478 0.462314C167.548 0.424568 167.619 0.405694 167.695 0.405694H170.785C170.908 0.405694 170.979 0.457596 171.002 0.566115C171.026 0.674634 171.012 0.797306 170.969 0.934134L166.577 14.683C166.364 15.3718 166.128 15.8295 165.869 16.0654C165.609 16.3013 165.26 16.4193 164.817 16.4193H162.141C161.698 16.4193 161.353 16.2966 161.099 16.0512C160.849 15.8059 160.608 15.3482 160.377 14.6783L156.786 3.80752C156.772 3.699 156.711 3.6471 156.602 3.6471H156.513C156.404 3.6471 156.343 3.699 156.329 3.80752L152.691 14.6783C152.46 15.3482 152.224 15.8059 151.969 16.0512C151.719 16.2966 151.37 16.4193 150.926 16.4193H148.317C148.058 16.4193 147.831 16.3957 147.642 16.3485C147.454 16.3013 147.279 16.2164 147.128 16.0843C146.977 15.9569 146.84 15.7776 146.727 15.5464C146.614 15.3199 146.501 15.0274 146.397 14.6783L142.188 0.929415C142.141 0.778432 142.132 0.651043 142.155 0.551961C142.179 0.452879 142.249 0.405694 142.372 0.405694H145.439H145.425ZM175.867 0.405694C176.202 0.405694 176.371 0.575549 176.371 0.910542V15.9191C176.371 16.2541 176.202 16.424 175.867 16.424H173.394C173.045 16.424 172.866 16.2541 172.866 15.9191V0.910542C172.866 0.575549 173.04 0.405694 173.394 0.405694H175.867ZM194.905 0.405694C195.24 0.405694 195.409 0.575549 195.409 0.910542V3.08563C195.409 3.42063 195.24 3.59048 194.905 3.59048H183.439C182.996 3.59048 182.684 3.70372 182.5 3.93491C182.316 4.16138 182.227 4.4775 182.227 4.87383V5.65234C182.227 6.50633 182.623 6.93569 183.416 6.93569H191.998C193.324 6.93569 194.324 7.2754 194.994 7.95482C195.664 8.63424 195.999 9.60619 195.999 10.8707V12.7013C195.999 13.8148 195.669 14.716 195.013 15.4001C194.357 16.089 193.333 16.4287 191.946 16.4287H179.268C178.919 16.4287 178.74 16.2589 178.74 15.9239V13.7488C178.74 13.4138 178.915 13.2439 179.268 13.2439H191.281C191.725 13.2439 192.036 13.1307 192.22 12.8995C192.404 12.6683 192.494 12.3569 192.494 11.9606V11.0216C192.494 10.1677 192.097 9.7383 191.305 9.7383H182.722C181.396 9.7383 180.396 9.39859 179.726 8.71917C179.056 8.03975 178.721 7.0678 178.721 5.80332V4.13307C178.721 3.01958 179.051 2.1184 179.707 1.43426C180.363 0.745405 181.387 0.405694 182.774 0.405694H194.9H194.905ZM214.528 0.405694C214.877 0.405694 215.056 0.575549 215.056 0.910542V3.08563C215.056 3.42063 214.881 3.59048 214.528 3.59048H204.53C203.935 3.59048 203.445 3.64238 203.053 3.74146C202.666 3.84054 202.35 4.0104 202.114 4.24631C201.878 4.48222 201.713 4.80306 201.623 5.20882C201.534 5.61459 201.486 6.11472 201.486 6.70921V6.9404H214.414C214.749 6.9404 214.919 7.11026 214.919 7.44525V9.25232C214.919 9.58731 214.749 9.75717 214.414 9.75717H201.486V10.1441C201.486 10.7386 201.534 11.2387 201.623 11.6445C201.713 12.0502 201.878 12.3711 202.114 12.607C202.35 12.8429 202.661 13.0127 203.053 13.1118C203.44 13.2109 203.935 13.2581 204.53 13.2581H214.528C214.877 13.2581 215.056 13.4279 215.056 13.7629V15.938C215.056 16.273 214.881 16.4429 214.528 16.4429H204.459C203.298 16.4429 202.317 16.3343 201.505 16.122C200.699 15.9097 200.038 15.5606 199.528 15.0793C199.019 14.598 198.641 13.9752 198.406 13.2015C198.17 12.4324 198.052 11.4982 198.052 10.3988V6.46387C198.052 5.36453 198.17 4.43504 198.406 3.67069C198.641 2.90634 199.014 2.28826 199.528 1.807C200.038 1.32574 200.699 0.976596 201.505 0.75484C202.312 0.533085 203.298 0.424567 204.459 0.424567H214.528V0.405694Z" fill="url(#paint1_linear_168_3882)"/>
<defs>
<linearGradient id="paint0_linear_168_3882" x1="1.07137" y1="18.5" x2="46.3378" y2="18.5" gradientUnits="userSpaceOnUse">
<stop stop-color="#F1BA26"/>
<stop offset="1" stop-color="#D93B18"/>
</linearGradient>
<linearGradient id="paint1_linear_168_3882" x1="60.5727" y1="14.9142" x2="215.051" y2="14.9142" gradientUnits="userSpaceOnUse">
<stop stop-color="#F1BA26"/>
<stop offset="1" stop-color="#D93B18"/>
</linearGradient>
</defs>
</svg>
