<?xml version="1.0" encoding="UTF-8" standalone="no"?>
<!-- Created with Inkscape (http://www.inkscape.org/) -->

<svg
   width="67.449478mm"
   height="31.010006mm"
   viewBox="0 0 67.449478 31.010006"
   version="1.1"
   id="svg5"
   xml:space="preserve"
   xmlns:inkscape="http://www.inkscape.org/namespaces/inkscape"
   xmlns:sodipodi="http://sodipodi.sourceforge.net/DTD/sodipodi-0.dtd"
   xmlns="http://www.w3.org/2000/svg"
   xmlns:svg="http://www.w3.org/2000/svg"><sodipodi:namedview
     id="namedview7"
     pagecolor="#ffffff"
     bordercolor="#000000"
     borderopacity="0.25"
     inkscape:showpageshadow="2"
     inkscape:pageopacity="0.0"
     inkscape:pagecheckerboard="0"
     inkscape:deskcolor="#d1d1d1"
     inkscape:document-units="mm"
     showgrid="false" /><defs
     id="defs2" /><g
     inkscape:label="Layer 1"
     inkscape:groupmode="layer"
     id="layer1"
     transform="translate(-254.49975,-34.360324)"><g
       id="g2560"
       inkscape:export-filename="g2560.svg"
       inkscape:export-xdpi="112.97346"
       inkscape:export-ydpi="112.97346"><g
         aria-label="MT"
         id="text63"
         style="font-size:34.4189px;font-family:Meta;-inkscape-font-specification:Meta;fill:#313649;stroke-width:2.86824"><path
           d="m 279.21251,61.832684 h -4.71539 l -0.89489,-12.769412 q -0.1721,-2.51258 -0.1721,-3.992593 -0.3786,1.824202 -0.89489,3.682823 l -3.78608,13.079182 h -4.09585 l -3.40747,-12.562899 q -0.65396,-2.478161 -0.96373,-4.233524 0,1.824201 -0.17209,4.302362 l -0.82605,12.494061 h -4.78423 l 2.23723,-23.921136 h 6.16098 l 3.13212,11.977777 q 0.5507,2.099553 0.82605,3.786079 0.30977,-1.789782 0.86048,-3.889335 l 3.23537,-11.874521 h 6.12657 z"
           style="font-weight:500;-inkscape-font-specification:'Meta Medium'"
           id="path2640" /><path
           d="m 297.83314,37.911548 -0.79163,3.992593 h -5.71354 v 19.928543 h -4.88748 V 41.904141 h -5.85121 v -3.992593 z"
           style="font-weight:500;-inkscape-font-specification:'Meta Medium'"
           id="path2642" /></g><g
         aria-label="5"
         id="text293"
         style="font-weight:500;font-size:44.5546px;font-family:Meta;-inkscape-font-specification:'Meta Medium';fill:#f27c3b;stroke-width:3.71287"><path
           d="m 321.94922,54.053454 q 0,4.94556 -3.96536,8.108937 -3.92081,3.207931 -10.06934,3.207931 -1.73763,0 -3.38615,-0.311882 l -1.29208,-4.410906 q 2.36139,0.623765 4.18813,0.623765 3.56437,0 5.7921,-1.826739 2.27228,-1.826738 2.27228,-4.678233 0,-2.138621 -1.33664,-3.430704 -1.33664,-1.292083 -3.51981,-1.292083 -2.49506,0 -6.50497,1.247528 l 1.42574,-16.930748 h 15.19312 l -0.89109,5.079225 h -8.7327 l -0.62376,6.193089 q 1.15841,-0.222773 2.09406,-0.222773 4.14358,0 6.72775,2.405949 2.62872,2.405948 2.62872,6.237644 z"
           id="path2645" /></g></g></g></svg>
