<?xml version="1.0" encoding="UTF-8"?><svg id="a" xmlns="http://www.w3.org/2000/svg" viewBox="0 0 227.68 223.21"><defs><style>.b{fill:#fcba31;}.c{fill:#10a2f3;}.d{fill:#65c558;}.e{fill:#fe8039;}</style></defs><path class="c" d="M104.15,198.58m-4.97-5.56c-7.42-7.69-13.94-16.07-20.12-24.76-2.41-3.39-3-6.56-.62-10.08,4.04,1.32,6.34,5.25,10.23,6.8,4.3,1.72,7.33,4.83,10.15,8.46,7.19,9.23,15.41,17.46,25.25,23.92,14.57,9.56,29.88,12.72,46.31,5,8.25-3.87,8.15-3.92,1.83-10.17-9.26-9.14-14.19-19.93-9.99-32.95,4.56-14.15,20.67-20.9,36.74-16.23,3.02,.88,6.6,4.25,8.87,2.24,2.33-2.07,1.2-6.61,1.36-10.09,.04-1-.02-2-.06-3-.63-16.9-10.27-27.58-26.99-29.88,.73-4.18,1.45-8.36,2.18-12.54,23.54,2.33,39.89,22.21,37.37,50.67-.07,.83-.17,1.66-.34,2.47-1.7,7.72-.94,14.36,3.05,22,10.19,19.51-4.5,39.65-27.11,38.32-4.21-.25-7.09,.84-10.25,3.4-21.45,17.35-48.29,16.99-72.9-.7-2.01-1.44-4.09-2.79-6.14-4.17-.77-.72-1.55-1.44-2.33-2.16m92.98-8.89c11.59,.18,18.13-7.53,15.43-18.19-2.93-11.54-18.41-20.67-29.94-17.66-8.23,2.15-12.18,8.91-10.05,17.19,2.6,10.1,13.65,18.49,24.57,18.65Z"/><path class="d" d="M184.32,89.75c-.73,4.18-1.45,8.36-2.18,12.54-3.01,10.86-6.39,21.58-10.86,31.95-1.28,2.98-2.99,5.17-6.41,5.35-1.34,.07-3.19-.22-2.44-2.07,3.52-8.67,1.59-18.07,3.83-26.88,4.32-12,6.62-24.37,5.57-37.11-1.35-16.28-8.87-28.63-24.11-35.7-3.07-1.42-4.42-1.47-5.02,2.62-1.97,13.43-8.67,23.51-21.85,28.49-4.5,.78-9,.8-13.51,.04-13.44-4.97-20.13-15.23-22.06-28.86-.57-4.04-1.86-4.28-5.02-2.68-4.61,2.33-9.07,4.86-13.12,8.1-10.96,8.79-13.77,19.15-8.71,32.3l-11.64,4.75c-7.97-18.45-2.42-36.51,14.96-48.95,6.55-4.69,13.64-8.31,21.21-10.98,2.67-.94,4.4-2.27,5.67-4.97,2.87-6.13,7.05-11.32,13.2-14.52,13.54-7.04,28.94-2.06,36.23,12.4,2.53,5.03,5.7,7.55,10.9,9.33,21.82,7.46,35,26.51,35.72,50.89,.14,4.65-.21,9.31-.34,13.97Zm-53.95-55.31c.17-5.48-1.29-10.69-4.7-15.26-6.08-8.16-16.06-8.52-22.62-.87-7.4,8.63-7.43,24.18-.07,32.88,6.45,7.62,15.99,7.53,22.28-.25,3.84-4.75,5.29-10.28,5.11-16.51Z"/><path class="b" d="M105.65,199.58c.78,.72,1.55,1.44,2.33,2.16-3.18,7.42-7.96,13.73-15.23,17.23-13.35,6.44-26.67,5.34-39.5-1.92-5.24-2.96-10.07-6.52-14.38-10.72-2.54-2.47-5.11-3.47-8.82-3.29-14.8,.7-26.42-7.48-29.35-20.36-2.06-9.05,.51-17.16,5.87-24.44,1.39-1.89,2.05-3.58,1.63-5.92-5.47-30.16,9.14-54.77,35.07-67.82,1.19-.6,2.34-1.28,3.5-1.92,3.88-1.58,7.76-3.16,11.64-4.75,8.55-2.06,16.96-4.87,25.74-5.7,5.63-.53,11.29-3.17,17.03-.49-8.57,2.8-16.38,6.92-22.76,13.39-1.25,1.27-2.94,1.41-4.34,2.23-14.19,2.54-27.14,7.97-38.12,17.38-11.3,9.69-16.51,22.2-16.15,37.12,.09,3.75,1.16,4.75,4.7,3.1,3.8-1.77,7.95-2.35,12.1-2.79,18.3-1.94,33.27,12.97,30.37,30.6-1.62,9.85-7.22,17.42-15.42,22.98-2.33,1.58-3.1,2.5-.43,4.57,5.3,4.12,10.79,7.79,17.3,9.7,10.44,3.07,20.42-.42,25.87-9.76,2.17-3.71,4.23-4.77,7.88-2.66m-73.31-6.92c9.28-.55,17.03-4.33,22.41-12.05,3.36-4.82,4.8-10.32,1.99-16.05-2.86-5.82-8.29-7.69-14.12-7.75-9.59-.1-17.39,3.99-22.98,11.86-3.51,4.94-4.72,10.51-1.99,16.03,2.87,5.81,8.46,7.6,14.7,7.95Z"/><path class="e" d="M116.18,76.23c22.66,.09,43.05,21.08,42.69,44.77-.39,25.57-20.62,45.3-45,45.17-24.98-.14-44.68-19.69-44.05-45.7,.61-25.12,20.41-44.33,46.36-44.23Zm-13.85,37.65h-.15c0,1.16,.18,2.36-.03,3.48-.83,4.52,.83,5.67,4.91,3.82,.3-.14,.64-.19,.96-.26,7.35-1.43,12,.81,13.1,6.31,1.27,6.37-3.02,12.9-9.48,14.25-2.94,.62-5.94,.63-8.94,.33-1.75-.18-4.03-.88-3.75,2.17,.2,2.18-1.56,5.44,2.38,6.02,8.27,1.21,16.34,.83,23.27-4.59,6.09-4.77,9.27-15.26,7.07-22.63-2.43-8.14-8.66-10.88-16.4-11.17-2.46-.09-3.24-.93-2.84-3.31,1.67-9.97-1.58-8.52,9.29-8.67,1.66-.02,3.33,.06,4.99-.03,4.33-.24,2.67-3.78,3.19-6.04,.64-2.78-1.02-3.34-3.43-3.31-6.48,.08-12.97,.13-19.46-.02-2.8-.07-3.78,.92-3.83,3.72-.12,6.64-.54,13.28-.84,19.92Z"/><path class="c" d="M109.69,171.78c6.34-.09,12.02,.26,17.44-1.78,1.74-.65,3.25,.28,4.79,.82,4.64,1.62,9.34,2.41,14.18,1,3.23-.95,4.82-.05,5.35,3.5,1.35,9.13,3.29,8-6.26,9.41-11.51,1.7-25.57-3.41-35.49-12.96Z"/><path class="b" d="M62.93,121.2c-3.15,2.31-4.44,5.82-5.32,9.31-.85,3.38-2.6,3.79-5.41,2.81-1.72-.6-3.45-1.17-5.2-1.7-1.42-.43-2.14-1.09-2.08-2.81,.27-8.75,13.17-24.05,22.1-26.03-3.13,5.75-2.54,12.32-4.09,18.42Z"/><path class="d" d="M138.35,74.53c-4.95-5.24,1.17-6.78,3.29-9.52,2.79-3.6,4.77-.81,6.72,1.19,7.92,8.17,10.11,18.44,10.71,29.29-5.89-7.99-13.29-14.48-20.71-20.96Z"/></svg>